# xmcd
#
# Track frame offsets:
# 150
# 13525
# 25953
# 45541
# 54708
# 66327
# 80594
# 95473
# 107260
# 121052
# 134817
# 151062
# 165328
# 177950
# 190238
# 205146
# 216932
# 228802
# 239335
# 255217
# 270960
# 283443
#
# Disc length: 3951 seconds
#
#
# Revision: 0
# Processed by: cddbd v1.5.2PL0 Copyright (c) Steve Scherf et al.
# Submitted via: FreeRIP 2.945 
#
DISCID=280f6d16
DTITLE=Herriot-J1992 - Every-Living-Thing01
DYEAR=1992
DGENRE=Jungle
TTITLE0=ELT 0101
TTITLE1=ELT 0102
TTITLE2=ELT 0103
TTITLE3=ELT 0104
TTITLE4=ELT 0105
TTITLE5=ELT 0106
TTITLE6=ELT 0107
TTITLE7=ELT 0108
TTITLE8=ELT 0109
TTITLE9=ELT 0110
TTITLE10=ELT 0111
TTITLE11=ELT 0112
TTITLE12=ELT 0113
TTITLE13=ELT 0114
TTITLE14=ELT 0115
TTITLE15=ELT 0116
TTITLE16=ELT 0117
TTITLE17=ELT 0118
TTITLE18=ELT 0119
TTITLE19=ELT 0120
TTITLE20=ELT 0121
TTITLE21=ELT 0122
EXTD=Every Living Thing by James Herriot 10 CDs\nread by Christopher Timothy BBC Audiobooks
EXTT0=
EXTT1=
EXTT2=
EXTT3=
EXTT4=
EXTT5=
EXTT6=
EXTT7=
EXTT8=
EXTT9=
EXTT10=
EXTT11=
EXTT12=
EXTT13=
EXTT14=
EXTT15=
EXTT16=
EXTT17=
EXTT18=
EXTT19=
EXTT20=
EXTT21=
PLAYORDER=
